# xmcd
#
# Track frame offsets:
#	150
#	21868
#	36567
#	58512
#	74902
#	104911
#
# Disc length: 1654 seconds
#
# Revision: 1
# Processed by: cddbd v1.5.1PL0 Copyright (c) Steve Scherf et al.
# Submitted via: CDex 1.50Beta5
#
DISCID=5f067406
DTITLE=The Wonders - Warm Blanket
DYEAR=1900
DGENRE=Alternative
TTITLE0=スピード
TTITLE1=虹
TTITLE2=明日
TTITLE3=あの時想えば
TTITLE4=僕はそっと帰ろう
TTITLE5=ただひとつ
EXTD=
EXTT0=
EXTT1=
EXTT2=
EXTT3=
EXTT4=
EXTT5=
PLAYORDER=
